<svg width="21" height="21" viewBox="0 0 21 21" fill="none" xmlns="http://www.w3.org/2000/svg">
<path d="M10.0093 20.0052C5.96284 20.0092 2.31274 17.5743 0.762327 13.8367C-0.788088 10.099 0.0667913 5.7954 2.92803 2.9341C5.45426 0.405735 9.13745 -0.582851 12.5902 0.340738C16.0429 1.26433 18.7407 3.95978 19.6672 7.41173C20.5937 10.8637 19.6083 14.5477 17.082 17.0761C15.2103 18.9579 12.6634 20.0126 10.0093 20.0052ZM2.00511 10.1805C2.05429 14.5817 5.64959 18.1165 10.051 18.0911C14.4524 18.0654 18.0065 14.4892 18.0046 10.0877C18.0027 5.68621 14.4457 2.11299 10.0442 2.09108C5.64277 2.06941 2.05048 5.60724 2.00504 10.0085L2.00511 10.1805ZM7.41573 14.0062L6.00614 12.5968L8.59504 10.0057L6.00394 7.4168L7.41334 6.0062L10.0044 8.5951L12.5933 6.004L14.0039 7.4134L11.415 10.0045L14.0061 12.5934L12.5977 14.004L10.0056 11.4151L7.41673 14.0062L7.41573 14.0062Z" fill="black" fill-opacity="0.4"/>
</svg>
