<svg width="162" height="12" viewBox="0 0 162 12" fill="none" xmlns="http://www.w3.org/2000/svg">
<path d="M0.155273 11V1.04688H2.96484C3.83073 1.04688 4.59635 1.23828 5.26172 1.62109C5.92708 2.00391 6.43978 2.5485 6.7998 3.25488C7.16439 3.96126 7.34896 4.77246 7.35352 5.68848V6.32422C7.35352 7.26302 7.17122 8.08561 6.80664 8.79199C6.44661 9.49837 5.92936 10.0407 5.25488 10.4189C4.58496 10.7972 3.80339 10.9909 2.91016 11H0.155273ZM1.46777 2.12695V9.92676H2.84863C3.86035 9.92676 4.64648 9.6123 5.20703 8.9834C5.77214 8.35449 6.05469 7.45898 6.05469 6.29688V5.71582C6.05469 4.58561 5.78809 3.70833 5.25488 3.08398C4.72624 2.45508 3.97428 2.13607 2.99902 2.12695H1.46777ZM8.80957 7.2334C8.80957 6.50879 8.95085 5.8571 9.2334 5.27832C9.52051 4.69954 9.91699 4.25293 10.4229 3.93848C10.9333 3.62402 11.5143 3.4668 12.166 3.4668C13.1732 3.4668 13.9867 3.81543 14.6064 4.5127C15.2308 5.20996 15.543 6.13737 15.543 7.29492V7.38379C15.543 8.10384 15.404 8.75098 15.126 9.3252C14.8525 9.89486 14.4583 10.3392 13.9434 10.6582C13.4329 10.9772 12.8451 11.1367 12.1797 11.1367C11.1771 11.1367 10.3636 10.7881 9.73926 10.0908C9.11947 9.39355 8.80957 8.4707 8.80957 7.32227V7.2334ZM10.0811 7.38379C10.0811 8.2041 10.2702 8.86263 10.6484 9.35938C11.0312 9.85612 11.5417 10.1045 12.1797 10.1045C12.8223 10.1045 13.3327 9.85384 13.7109 9.35254C14.0892 8.84668 14.2783 8.1403 14.2783 7.2334C14.2783 6.4222 14.0846 5.76595 13.6973 5.26465C13.3145 4.75879 12.804 4.50586 12.166 4.50586C11.5417 4.50586 11.0381 4.75423 10.6553 5.25098C10.2725 5.74772 10.0811 6.45866 10.0811 7.38379ZM18.3252 3.60352L18.3662 4.5332C18.9313 3.82227 19.6696 3.4668 20.5811 3.4668C22.1442 3.4668 22.9326 4.34863 22.9463 6.1123V11H21.6816V6.10547C21.6771 5.57227 21.554 5.17806 21.3125 4.92285C21.0755 4.66764 20.7041 4.54004 20.1982 4.54004C19.7881 4.54004 19.4281 4.64941 19.1182 4.86816C18.8083 5.08691 18.5667 5.37402 18.3936 5.72949V11H17.1289V3.60352H18.3252ZM24.3955 3.84961L23.6777 3.35742C24.1016 2.76497 24.3203 2.14062 24.334 1.48438V0.5H25.585V1.38867C25.5804 1.8444 25.4665 2.30013 25.2432 2.75586C25.0244 3.20703 24.7419 3.57161 24.3955 3.84961ZM28.8252 1.8125V3.60352H30.2061V4.58105H28.8252V9.16797C28.8252 9.46419 28.8867 9.6875 29.0098 9.83789C29.1328 9.98372 29.3424 10.0566 29.6387 10.0566C29.7845 10.0566 29.985 10.0293 30.2402 9.97461V11C29.9076 11.0911 29.584 11.1367 29.2695 11.1367C28.7044 11.1367 28.2783 10.9658 27.9912 10.624C27.7041 10.2822 27.5605 9.79688 27.5605 9.16797V4.58105H26.2139V3.60352H27.5605V1.8125H28.8252ZM36.4268 4.49902C36.9873 3.81087 37.7165 3.4668 38.6143 3.4668C40.1774 3.4668 40.9658 4.34863 40.9795 6.1123V11H39.7148V6.10547C39.7103 5.57227 39.5872 5.17806 39.3457 4.92285C39.1087 4.66764 38.7373 4.54004 38.2314 4.54004C37.8213 4.54004 37.4613 4.64941 37.1514 4.86816C36.8415 5.08691 36.5999 5.37402 36.4268 5.72949V11H35.1621V0.5H36.4268V4.49902ZM47.4395 11C47.3665 10.8542 47.3073 10.5944 47.2617 10.2207C46.6738 10.8314 45.972 11.1367 45.1562 11.1367C44.4271 11.1367 43.8278 10.9316 43.3584 10.5215C42.8936 10.1068 42.6611 9.58268 42.6611 8.94922C42.6611 8.17904 42.9528 7.58203 43.5361 7.1582C44.124 6.72982 44.9489 6.51562 46.0107 6.51562H47.2412V5.93457C47.2412 5.49251 47.109 5.1416 46.8447 4.88184C46.5804 4.61751 46.1908 4.48535 45.6758 4.48535C45.2246 4.48535 44.8464 4.59928 44.541 4.82715C44.2357 5.05501 44.083 5.33073 44.083 5.6543H42.8115C42.8115 5.28516 42.9414 4.92969 43.2012 4.58789C43.4655 4.24154 43.821 3.9681 44.2676 3.76758C44.7188 3.56706 45.2132 3.4668 45.751 3.4668C46.6032 3.4668 47.2708 3.68099 47.7539 4.10938C48.237 4.5332 48.4876 5.11882 48.5059 5.86621V9.27051C48.5059 9.94954 48.5924 10.4896 48.7656 10.8906V11H47.4395ZM45.3408 10.0361C45.7373 10.0361 46.1133 9.93359 46.4688 9.72852C46.8242 9.52344 47.0817 9.25684 47.2412 8.92871V7.41113H46.25C44.7005 7.41113 43.9258 7.86458 43.9258 8.77148C43.9258 9.16797 44.0579 9.47786 44.3223 9.70117C44.5866 9.92448 44.9261 10.0361 45.3408 10.0361ZM52.8193 9.28418L54.6514 3.60352H55.9434L53.291 11H52.3271L49.6475 3.60352H50.9395L52.8193 9.28418ZM60.1338 11.1367C59.1312 11.1367 58.3154 10.8086 57.6865 10.1523C57.0576 9.49154 56.7432 8.6097 56.7432 7.50684V7.27441C56.7432 6.54069 56.8822 5.88672 57.1602 5.3125C57.4427 4.73372 57.8346 4.28255 58.3359 3.95898C58.8418 3.63086 59.3887 3.4668 59.9766 3.4668C60.9382 3.4668 61.6855 3.78353 62.2188 4.41699C62.752 5.05046 63.0186 5.95736 63.0186 7.1377V7.66406H58.0078C58.026 8.39323 58.238 8.9834 58.6436 9.43457C59.0537 9.88118 59.5732 10.1045 60.2021 10.1045C60.6488 10.1045 61.027 10.0133 61.3369 9.83105C61.6468 9.64876 61.918 9.40723 62.1504 9.10645L62.9229 9.70801C62.3031 10.6605 61.3734 11.1367 60.1338 11.1367ZM59.9766 4.50586C59.4661 4.50586 59.0378 4.69271 58.6914 5.06641C58.3451 5.43555 58.1309 5.95508 58.0488 6.625H61.7539V6.5293C61.7174 5.88672 61.5443 5.38997 61.2344 5.03906C60.9245 4.68359 60.5052 4.50586 59.9766 4.50586ZM72.5273 11C72.4544 10.8542 72.3952 10.5944 72.3496 10.2207C71.7617 10.8314 71.0599 11.1367 70.2441 11.1367C69.515 11.1367 68.9157 10.9316 68.4463 10.5215C67.9814 10.1068 67.749 9.58268 67.749 8.94922C67.749 8.17904 68.0407 7.58203 68.624 7.1582C69.2119 6.72982 70.0368 6.51562 71.0986 6.51562H72.3291V5.93457C72.3291 5.49251 72.1969 5.1416 71.9326 4.88184C71.6683 4.61751 71.2786 4.48535 70.7637 4.48535C70.3125 4.48535 69.9342 4.59928 69.6289 4.82715C69.3236 5.05501 69.1709 5.33073 69.1709 5.6543H67.8994C67.8994 5.28516 68.0293 4.92969 68.2891 4.58789C68.5534 4.24154 68.9089 3.9681 69.3555 3.76758C69.8066 3.56706 70.3011 3.4668 70.8389 3.4668C71.6911 3.4668 72.3587 3.68099 72.8418 4.10938C73.3249 4.5332 73.5755 5.11882 73.5938 5.86621V9.27051C73.5938 9.94954 73.6803 10.4896 73.8535 10.8906V11H72.5273ZM70.4287 10.0361C70.8252 10.0361 71.2012 9.93359 71.5566 9.72852C71.9121 9.52344 72.1696 9.25684 72.3291 8.92871V7.41113H71.3379C69.7884 7.41113 69.0137 7.86458 69.0137 8.77148C69.0137 9.16797 69.1458 9.47786 69.4102 9.70117C69.6745 9.92448 70.014 10.0361 70.4287 10.0361ZM85.3105 7.38379C85.3105 8.514 85.0508 9.42318 84.5312 10.1113C84.0117 10.7949 83.3145 11.1367 82.4395 11.1367C81.5052 11.1367 80.7829 10.8063 80.2725 10.1455L80.2109 11H79.0488V0.5H80.3135V4.41699C80.8239 3.78353 81.528 3.4668 82.4258 3.4668C83.3236 3.4668 84.0277 3.80632 84.5381 4.48535C85.0531 5.16439 85.3105 6.09408 85.3105 7.27441V7.38379ZM84.0459 7.24023C84.0459 6.37891 83.8796 5.71354 83.5469 5.24414C83.2142 4.77474 82.7357 4.54004 82.1113 4.54004C81.2773 4.54004 80.6781 4.92741 80.3135 5.70215V8.90137C80.7008 9.67611 81.3047 10.0635 82.125 10.0635C82.7311 10.0635 83.2028 9.82878 83.54 9.35938C83.8773 8.88997 84.0459 8.18359 84.0459 7.24023ZM88.2842 11H87.0195V3.60352H88.2842V11ZM86.917 1.6416C86.917 1.43652 86.9785 1.26335 87.1016 1.12207C87.2292 0.980794 87.416 0.910156 87.6621 0.910156C87.9082 0.910156 88.0951 0.980794 88.2227 1.12207C88.3503 1.26335 88.4141 1.43652 88.4141 1.6416C88.4141 1.84668 88.3503 2.01758 88.2227 2.1543C88.0951 2.29102 87.9082 2.35938 87.6621 2.35938C87.416 2.35938 87.2292 2.29102 87.1016 2.1543C86.9785 2.01758 86.917 1.84668 86.917 1.6416ZM92.3789 7.5752L91.5859 8.40234V11H90.3213V0.5H91.5859V6.85059L92.2627 6.03711L94.5664 3.60352H96.1045L93.2266 6.69336L96.4395 11H94.9561L92.3789 7.5752ZM100.343 11.1367C99.3402 11.1367 98.5244 10.8086 97.8955 10.1523C97.2666 9.49154 96.9521 8.6097 96.9521 7.50684V7.27441C96.9521 6.54069 97.0911 5.88672 97.3691 5.3125C97.6517 4.73372 98.0436 4.28255 98.5449 3.95898C99.0508 3.63086 99.5977 3.4668 100.186 3.4668C101.147 3.4668 101.895 3.78353 102.428 4.41699C102.961 5.05046 103.228 5.95736 103.228 7.1377V7.66406H98.2168C98.235 8.39323 98.4469 8.9834 98.8525 9.43457C99.2627 9.88118 99.7822 10.1045 100.411 10.1045C100.858 10.1045 101.236 10.0133 101.546 9.83105C101.856 9.64876 102.127 9.40723 102.359 9.10645L103.132 9.70801C102.512 10.6605 101.582 11.1367 100.343 11.1367ZM100.186 4.50586C99.6751 4.50586 99.2467 4.69271 98.9004 5.06641C98.554 5.43555 98.3398 5.95508 98.2578 6.625H101.963V6.5293C101.926 5.88672 101.753 5.38997 101.443 5.03906C101.133 4.68359 100.714 4.50586 100.186 4.50586ZM109.366 3.60352L109.407 4.5332C109.972 3.82227 110.711 3.4668 111.622 3.4668C113.185 3.4668 113.974 4.34863 113.987 6.1123V11H112.723V6.10547C112.718 5.57227 112.595 5.17806 112.354 4.92285C112.117 4.66764 111.745 4.54004 111.239 4.54004C110.829 4.54004 110.469 4.64941 110.159 4.86816C109.849 5.08691 109.608 5.37402 109.435 5.72949V11H108.17V3.60352H109.366ZM120.461 10.2686C119.969 10.8473 119.246 11.1367 118.294 11.1367C117.506 11.1367 116.904 10.9089 116.489 10.4531C116.079 9.99284 115.872 9.3138 115.867 8.41602V3.60352H117.132V8.38184C117.132 9.50293 117.588 10.0635 118.499 10.0635C119.465 10.0635 120.108 9.70345 120.427 8.9834V3.60352H121.691V11H120.488L120.461 10.2686ZM124.809 3.60352L124.843 4.42383C125.385 3.78581 126.117 3.4668 127.037 3.4668C128.072 3.4668 128.776 3.86328 129.149 4.65625C129.396 4.30078 129.715 4.01367 130.106 3.79492C130.503 3.57617 130.97 3.4668 131.508 3.4668C133.13 3.4668 133.955 4.32585 133.982 6.04395V11H132.718V6.11914C132.718 5.59049 132.597 5.19629 132.355 4.93652C132.114 4.6722 131.708 4.54004 131.139 4.54004C130.669 4.54004 130.28 4.68132 129.97 4.96387C129.66 5.24186 129.48 5.61784 129.43 6.0918V11H128.158V6.15332C128.158 5.0778 127.632 4.54004 126.579 4.54004C125.75 4.54004 125.182 4.89323 124.877 5.59961V11H123.612V3.60352H124.809ZM142.158 7.38379C142.158 8.514 141.898 9.42318 141.379 10.1113C140.859 10.7949 140.162 11.1367 139.287 11.1367C138.353 11.1367 137.631 10.8063 137.12 10.1455L137.059 11H135.896V0.5H137.161V4.41699C137.672 3.78353 138.376 3.4668 139.273 3.4668C140.171 3.4668 140.875 3.80632 141.386 4.48535C141.901 5.16439 142.158 6.09408 142.158 7.27441V7.38379ZM140.894 7.24023C140.894 6.37891 140.727 5.71354 140.395 5.24414C140.062 4.77474 139.583 4.54004 138.959 4.54004C138.125 4.54004 137.526 4.92741 137.161 5.70215V8.90137C137.549 9.67611 138.152 10.0635 138.973 10.0635C139.579 10.0635 140.05 9.82878 140.388 9.35938C140.725 8.88997 140.894 8.18359 140.894 7.24023ZM146.827 11.1367C145.825 11.1367 145.009 10.8086 144.38 10.1523C143.751 9.49154 143.437 8.6097 143.437 7.50684V7.27441C143.437 6.54069 143.576 5.88672 143.854 5.3125C144.136 4.73372 144.528 4.28255 145.029 3.95898C145.535 3.63086 146.082 3.4668 146.67 3.4668C147.632 3.4668 148.379 3.78353 148.912 4.41699C149.445 5.05046 149.712 5.95736 149.712 7.1377V7.66406H144.701C144.719 8.39323 144.931 8.9834 145.337 9.43457C145.747 9.88118 146.267 10.1045 146.896 10.1045C147.342 10.1045 147.72 10.0133 148.03 9.83105C148.34 9.64876 148.611 9.40723 148.844 9.10645L149.616 9.70801C148.996 10.6605 148.067 11.1367 146.827 11.1367ZM146.67 4.50586C146.16 4.50586 145.731 4.69271 145.385 5.06641C145.038 5.43555 144.824 5.95508 144.742 6.625H148.447V6.5293C148.411 5.88672 148.238 5.38997 147.928 5.03906C147.618 4.68359 147.199 4.50586 146.67 4.50586ZM154.757 4.73828C154.565 4.70638 154.358 4.69043 154.135 4.69043C153.305 4.69043 152.743 5.04362 152.446 5.75V11H151.182V3.60352H152.412L152.433 4.45801C152.847 3.7972 153.435 3.4668 154.196 3.4668C154.442 3.4668 154.629 3.4987 154.757 3.5625V4.73828ZM157.409 8.19727C157.418 7.65495 157.48 7.22656 157.594 6.91211C157.708 6.59766 157.94 6.24902 158.291 5.86621L159.187 4.94336C159.569 4.51042 159.761 4.04557 159.761 3.54883C159.761 3.07031 159.635 2.69661 159.385 2.42773C159.134 2.1543 158.77 2.01758 158.291 2.01758C157.826 2.01758 157.452 2.14062 157.17 2.38672C156.887 2.63281 156.746 2.96322 156.746 3.37793H155.481C155.491 2.63965 155.753 2.04492 156.268 1.59375C156.787 1.13802 157.462 0.910156 158.291 0.910156C159.152 0.910156 159.822 1.14258 160.301 1.60742C160.784 2.06771 161.025 2.70117 161.025 3.50781C161.025 4.30534 160.656 5.09147 159.918 5.86621L159.173 6.60449C158.84 6.97363 158.674 7.50456 158.674 8.19727H157.409ZM157.354 10.3643C157.354 10.1592 157.416 9.98828 157.539 9.85156C157.667 9.71029 157.854 9.63965 158.1 9.63965C158.346 9.63965 158.533 9.71029 158.66 9.85156C158.788 9.98828 158.852 10.1592 158.852 10.3643C158.852 10.5693 158.788 10.7402 158.66 10.877C158.533 11.0091 158.346 11.0752 158.1 11.0752C157.854 11.0752 157.667 11.0091 157.539 10.877C157.416 10.7402 157.354 10.5693 157.354 10.3643Z" fill="#0663F6"/>
</svg>
