<svg width="119" height="14" viewBox="0 0 119 14" fill="none" xmlns="http://www.w3.org/2000/svg">
<path d="M0.155273 11V1.04688H3.40918C4.48926 1.04688 5.30046 1.27018 5.84277 1.7168C6.38965 2.16341 6.66309 2.82422 6.66309 3.69922C6.66309 4.16406 6.53092 4.5765 6.2666 4.93652C6.00228 5.29199 5.64225 5.56771 5.18652 5.76367C5.72428 5.91406 6.14811 6.20117 6.45801 6.625C6.77246 7.04427 6.92969 7.54557 6.92969 8.12891C6.92969 9.02214 6.6403 9.72396 6.06152 10.2344C5.48275 10.7448 4.66471 11 3.60742 11H0.155273ZM1.46777 6.34473V9.92676H3.63477C4.24544 9.92676 4.72624 9.76953 5.07715 9.45508C5.43262 9.13607 5.61035 8.69857 5.61035 8.14258C5.61035 6.94401 4.95866 6.34473 3.65527 6.34473H1.46777ZM1.46777 5.29199H3.4502C4.02441 5.29199 4.48242 5.14844 4.82422 4.86133C5.17057 4.57422 5.34375 4.18457 5.34375 3.69238C5.34375 3.14551 5.18424 2.74902 4.86523 2.50293C4.54622 2.25228 4.06087 2.12695 3.40918 2.12695H1.46777V5.29199ZM8.34473 7.2334C8.34473 6.50879 8.486 5.8571 8.76855 5.27832C9.05566 4.69954 9.45215 4.25293 9.95801 3.93848C10.4684 3.62402 11.0495 3.4668 11.7012 3.4668C12.7083 3.4668 13.5218 3.81543 14.1416 4.5127C14.766 5.20996 15.0781 6.13737 15.0781 7.29492V7.38379C15.0781 8.10384 14.9391 8.75098 14.6611 9.3252C14.3877 9.89486 13.9935 10.3392 13.4785 10.6582C12.9681 10.9772 12.3802 11.1367 11.7148 11.1367C10.7122 11.1367 9.89876 10.7881 9.27441 10.0908C8.65462 9.39355 8.34473 8.4707 8.34473 7.32227V7.2334ZM9.61621 7.38379C9.61621 8.2041 9.80534 8.86263 10.1836 9.35938C10.5664 9.85612 11.0768 10.1045 11.7148 10.1045C12.3574 10.1045 12.8678 9.85384 13.2461 9.35254C13.6243 8.84668 13.8135 8.1403 13.8135 7.2334C13.8135 6.4222 13.6198 5.76595 13.2324 5.26465C12.8496 4.75879 12.3392 4.50586 11.7012 4.50586C11.0768 4.50586 10.5732 4.75423 10.1904 5.25098C9.80762 5.74772 9.61621 6.45866 9.61621 7.38379ZM21.2305 10.2686C20.7383 10.8473 20.016 11.1367 19.0635 11.1367C18.2751 11.1367 17.6735 10.9089 17.2588 10.4531C16.8486 9.99284 16.6413 9.3138 16.6367 8.41602V3.60352H17.9014V8.38184C17.9014 9.50293 18.3571 10.0635 19.2686 10.0635C20.2347 10.0635 20.8773 9.70345 21.1963 8.9834V3.60352H22.4609V11H21.2578L21.2305 10.2686ZM24.0879 7.24023C24.0879 6.08724 24.3545 5.17122 24.8877 4.49219C25.4209 3.80859 26.1273 3.4668 27.0068 3.4668C27.9092 3.4668 28.6133 3.78581 29.1191 4.42383L29.1807 3.60352H30.3359V10.8223C30.3359 11.7793 30.0511 12.5335 29.4814 13.085C28.9163 13.6364 28.1553 13.9121 27.1982 13.9121C26.665 13.9121 26.1432 13.7982 25.6328 13.5703C25.1224 13.3424 24.7327 13.0303 24.4639 12.6338L25.1201 11.875C25.6624 12.5449 26.3255 12.8799 27.1094 12.8799C27.7246 12.8799 28.2031 12.7067 28.5449 12.3604C28.8913 12.014 29.0645 11.5264 29.0645 10.8975V10.2617C28.5586 10.8451 27.8682 11.1367 26.9932 11.1367C26.1273 11.1367 25.4255 10.7881 24.8877 10.0908C24.3545 9.39355 24.0879 8.44336 24.0879 7.24023ZM25.3594 7.38379C25.3594 8.21777 25.5303 8.87402 25.8721 9.35254C26.2139 9.8265 26.6924 10.0635 27.3076 10.0635C28.1051 10.0635 28.6908 9.70117 29.0645 8.97656V5.59961C28.6771 4.89323 28.096 4.54004 27.3213 4.54004C26.7061 4.54004 26.2253 4.7793 25.8789 5.25781C25.5326 5.73633 25.3594 6.44499 25.3594 7.38379ZM33.5146 4.49902C34.0752 3.81087 34.8044 3.4668 35.7021 3.4668C37.2653 3.4668 38.0537 4.34863 38.0674 6.1123V11H36.8027V6.10547C36.7982 5.57227 36.6751 5.17806 36.4336 4.92285C36.1966 4.66764 35.8252 4.54004 35.3193 4.54004C34.9092 4.54004 34.5492 4.64941 34.2393 4.86816C33.9294 5.08691 33.6878 5.37402 33.5146 5.72949V11H32.25V0.5H33.5146V4.49902ZM41.6768 1.8125V3.60352H43.0576V4.58105H41.6768V9.16797C41.6768 9.46419 41.7383 9.6875 41.8613 9.83789C41.9844 9.98372 42.194 10.0566 42.4902 10.0566C42.6361 10.0566 42.8366 10.0293 43.0918 9.97461V11C42.7591 11.0911 42.4355 11.1367 42.1211 11.1367C41.556 11.1367 41.1299 10.9658 40.8428 10.624C40.5557 10.2822 40.4121 9.79688 40.4121 9.16797V4.58105H39.0654V3.60352H40.4121V1.8125H41.6768ZM52.5801 11C52.5072 10.8542 52.4479 10.5944 52.4023 10.2207C51.8145 10.8314 51.1126 11.1367 50.2969 11.1367C49.5677 11.1367 48.9684 10.9316 48.499 10.5215C48.0342 10.1068 47.8018 9.58268 47.8018 8.94922C47.8018 8.17904 48.0934 7.58203 48.6768 7.1582C49.2646 6.72982 50.0895 6.51562 51.1514 6.51562H52.3818V5.93457C52.3818 5.49251 52.2497 5.1416 51.9854 4.88184C51.721 4.61751 51.3314 4.48535 50.8164 4.48535C50.3652 4.48535 49.987 4.59928 49.6816 4.82715C49.3763 5.05501 49.2236 5.33073 49.2236 5.6543H47.9521C47.9521 5.28516 48.082 4.92969 48.3418 4.58789C48.6061 4.24154 48.9616 3.9681 49.4082 3.76758C49.8594 3.56706 50.3538 3.4668 50.8916 3.4668C51.7438 3.4668 52.4115 3.68099 52.8945 4.10938C53.3776 4.5332 53.6283 5.11882 53.6465 5.86621V9.27051C53.6465 9.94954 53.7331 10.4896 53.9062 10.8906V11H52.5801ZM50.4814 10.0361C50.8779 10.0361 51.2539 9.93359 51.6094 9.72852C51.9648 9.52344 52.2223 9.25684 52.3818 8.92871V7.41113H51.3906C49.8411 7.41113 49.0664 7.86458 49.0664 8.77148C49.0664 9.16797 49.1986 9.47786 49.4629 9.70117C49.7272 9.92448 50.0667 10.0361 50.4814 10.0361ZM60.2979 3.60352L60.3389 4.5332C60.904 3.82227 61.6423 3.4668 62.5537 3.4668C64.1169 3.4668 64.9053 4.34863 64.9189 6.1123V11H63.6543V6.10547C63.6497 5.57227 63.5267 5.17806 63.2852 4.92285C63.0482 4.66764 62.6768 4.54004 62.1709 4.54004C61.7607 4.54004 61.4007 4.64941 61.0908 4.86816C60.7809 5.08691 60.5394 5.37402 60.3662 5.72949V11H59.1016V3.60352H60.2979ZM69.8955 11.1367C68.8929 11.1367 68.0771 10.8086 67.4482 10.1523C66.8193 9.49154 66.5049 8.6097 66.5049 7.50684V7.27441C66.5049 6.54069 66.6439 5.88672 66.9219 5.3125C67.2044 4.73372 67.5964 4.28255 68.0977 3.95898C68.6035 3.63086 69.1504 3.4668 69.7383 3.4668C70.6999 3.4668 71.4473 3.78353 71.9805 4.41699C72.5137 5.05046 72.7803 5.95736 72.7803 7.1377V7.66406H67.7695C67.7878 8.39323 67.9997 8.9834 68.4053 9.43457C68.8154 9.88118 69.335 10.1045 69.9639 10.1045C70.4105 10.1045 70.7887 10.0133 71.0986 9.83105C71.4085 9.64876 71.6797 9.40723 71.9121 9.10645L72.6846 9.70801C72.0648 10.6605 71.1351 11.1367 69.8955 11.1367ZM69.7383 4.50586C69.2279 4.50586 68.7995 4.69271 68.4531 5.06641C68.1068 5.43555 67.8926 5.95508 67.8105 6.625H71.5156V6.5293C71.4792 5.88672 71.306 5.38997 70.9961 5.03906C70.6862 4.68359 70.2669 4.50586 69.7383 4.50586ZM80.7988 9.25684L82.2207 3.60352H83.4854L81.332 11H80.3066L78.5088 5.39453L76.7588 11H75.7334L73.5869 3.60352H74.8447L76.3008 9.14062L78.0234 3.60352H79.042L80.7988 9.25684ZM94.5117 7.38379C94.5117 8.514 94.252 9.42318 93.7324 10.1113C93.2129 10.7949 92.5156 11.1367 91.6406 11.1367C90.7064 11.1367 89.984 10.8063 89.4736 10.1455L89.4121 11H88.25V0.5H89.5146V4.41699C90.0251 3.78353 90.7292 3.4668 91.627 3.4668C92.5247 3.4668 93.2288 3.80632 93.7393 4.48535C94.2542 5.16439 94.5117 6.09408 94.5117 7.27441V7.38379ZM93.2471 7.24023C93.2471 6.37891 93.0807 5.71354 92.748 5.24414C92.4154 4.77474 91.9368 4.54004 91.3125 4.54004C90.4785 4.54004 89.8792 4.92741 89.5146 5.70215V8.90137C89.902 9.67611 90.5059 10.0635 91.3262 10.0635C91.9323 10.0635 92.404 9.82878 92.7412 9.35938C93.0785 8.88997 93.2471 8.18359 93.2471 7.24023ZM97.4854 11H96.2207V3.60352H97.4854V11ZM96.1182 1.6416C96.1182 1.43652 96.1797 1.26335 96.3027 1.12207C96.4303 0.980794 96.6172 0.910156 96.8633 0.910156C97.1094 0.910156 97.2962 0.980794 97.4238 1.12207C97.5514 1.26335 97.6152 1.43652 97.6152 1.6416C97.6152 1.84668 97.5514 2.01758 97.4238 2.1543C97.2962 2.29102 97.1094 2.35938 96.8633 2.35938C96.6172 2.35938 96.4303 2.29102 96.3027 2.1543C96.1797 2.01758 96.1182 1.84668 96.1182 1.6416ZM101.58 7.5752L100.787 8.40234V11H99.5225V0.5H100.787V6.85059L101.464 6.03711L103.768 3.60352H105.306L102.428 6.69336L105.641 11H104.157L101.58 7.5752ZM109.544 11.1367C108.541 11.1367 107.726 10.8086 107.097 10.1523C106.468 9.49154 106.153 8.6097 106.153 7.50684V7.27441C106.153 6.54069 106.292 5.88672 106.57 5.3125C106.853 4.73372 107.245 4.28255 107.746 3.95898C108.252 3.63086 108.799 3.4668 109.387 3.4668C110.348 3.4668 111.096 3.78353 111.629 4.41699C112.162 5.05046 112.429 5.95736 112.429 7.1377V7.66406H107.418C107.436 8.39323 107.648 8.9834 108.054 9.43457C108.464 9.88118 108.983 10.1045 109.612 10.1045C110.059 10.1045 110.437 10.0133 110.747 9.83105C111.057 9.64876 111.328 9.40723 111.561 9.10645L112.333 9.70801C111.713 10.6605 110.784 11.1367 109.544 11.1367ZM109.387 4.50586C108.876 4.50586 108.448 4.69271 108.102 5.06641C107.755 5.43555 107.541 5.95508 107.459 6.625H111.164V6.5293C111.128 5.88672 110.954 5.38997 110.645 5.03906C110.335 4.68359 109.915 4.50586 109.387 4.50586ZM115.382 8.19727C115.391 7.65495 115.452 7.22656 115.566 6.91211C115.68 6.59766 115.913 6.24902 116.264 5.86621L117.159 4.94336C117.542 4.51042 117.733 4.04557 117.733 3.54883C117.733 3.07031 117.608 2.69661 117.357 2.42773C117.107 2.1543 116.742 2.01758 116.264 2.01758C115.799 2.01758 115.425 2.14062 115.143 2.38672C114.86 2.63281 114.719 2.96322 114.719 3.37793H113.454C113.463 2.63965 113.725 2.04492 114.24 1.59375C114.76 1.13802 115.434 0.910156 116.264 0.910156C117.125 0.910156 117.795 1.14258 118.273 1.60742C118.757 2.06771 118.998 2.70117 118.998 3.50781C118.998 4.30534 118.629 5.09147 117.891 5.86621L117.146 6.60449C116.813 6.97363 116.646 7.50456 116.646 8.19727H115.382ZM115.327 10.3643C115.327 10.1592 115.389 9.98828 115.512 9.85156C115.639 9.71029 115.826 9.63965 116.072 9.63965C116.318 9.63965 116.505 9.71029 116.633 9.85156C116.76 9.98828 116.824 10.1592 116.824 10.3643C116.824 10.5693 116.76 10.7402 116.633 10.877C116.505 11.0091 116.318 11.0752 116.072 11.0752C115.826 11.0752 115.639 11.0091 115.512 10.877C115.389 10.7402 115.327 10.5693 115.327 10.3643Z" fill="#0663F6"/>
</svg>
