<svg width="36" height="36" viewBox="0 0 36 36" fill="none" xmlns="http://www.w3.org/2000/svg">
<rect width="36" height="36" rx="4" fill="#FEF9E6"/>
<path d="M23 17.5C23 21.0203 20.5264 23 18.5 23C16.4736 23 14 21.0203 14 17.5C14 13.9797 16.4736 12 18.5 12C20.5264 12 23 13.9797 23 17.5Z" stroke="#FACB47" stroke-width="10" stroke-linecap="round" stroke-linejoin="round"/>
<path d="M21.475 20.05C21.601 20.05 21.7218 19.9947 21.8109 19.8962C21.9 19.7978 21.95 19.6642 21.95 19.525C21.95 19.3858 21.9 19.2522 21.8109 19.1538C21.7218 19.0553 21.601 19 21.475 19C21.349 19 21.2282 19.0553 21.1391 19.1538C21.05 19.2522 21 19.3858 21 19.525C21 19.6642 21.05 19.7978 21.1391 19.8962C21.2282 19.9947 21.349 20.05 21.475 20.05Z" stroke="white" stroke-width="4" stroke-linecap="round" stroke-linejoin="round"/>
<path d="M16.475 15.05C16.601 15.05 16.7218 14.9947 16.8109 14.8962C16.9 14.7978 16.95 14.6642 16.95 14.525C16.95 14.3858 16.9 14.2522 16.8109 14.1538C16.7218 14.0553 16.601 14 16.475 14C16.349 14 16.2282 14.0553 16.1391 14.1538C16.05 14.2522 16 14.3858 16 14.525C16 14.6642 16.05 14.7978 16.1391 14.8962C16.2282 14.9947 16.349 15.05 16.475 15.05Z" stroke="white" stroke-width="4" stroke-linecap="round" stroke-linejoin="round"/>
<path d="M22.3002 13.3L14.7002 21.7" stroke="white" stroke-width="1.5" stroke-linecap="round" stroke-linejoin="round"/>
</svg>
