<svg width="85" height="15" viewBox="0 0 85 15" fill="none" xmlns="http://www.w3.org/2000/svg">
<path d="M2.43359 11H0.758789V1.19727H2.43359V11ZM10.9102 11H9.32422V7.05566C9.32422 5.74772 8.86165 5.09375 7.93652 5.09375C7.45345 5.09375 7.05469 5.27604 6.74023 5.64062C6.42578 6.00065 6.26855 6.45638 6.26855 7.00781V11H4.67578V4H6.26855V5.16211H6.2959C6.81999 4.27799 7.5765 3.83594 8.56543 3.83594C9.3265 3.83594 9.90755 4.08431 10.3086 4.58105C10.7096 5.07324 10.9102 5.78646 10.9102 6.7207V11ZM12.4141 10.7812V9.31152C13.0065 9.7627 13.6605 9.98828 14.376 9.98828C15.333 9.98828 15.8115 9.70573 15.8115 9.14062C15.8115 8.98112 15.7705 8.84668 15.6885 8.7373C15.6064 8.62337 15.4948 8.52311 15.3535 8.43652C15.2168 8.34993 15.0527 8.27246 14.8613 8.2041C14.6745 8.13574 14.4648 8.05827 14.2324 7.97168C13.9453 7.85775 13.6855 7.73698 13.4531 7.60938C13.2253 7.48177 13.0339 7.33822 12.8789 7.17871C12.7285 7.01465 12.6146 6.83008 12.5371 6.625C12.4596 6.41992 12.4209 6.18066 12.4209 5.90723C12.4209 5.56999 12.5007 5.27376 12.6602 5.01855C12.8197 4.75879 13.0339 4.54232 13.3027 4.36914C13.5716 4.19141 13.877 4.05924 14.2188 3.97266C14.5605 3.88151 14.9137 3.83594 15.2783 3.83594C15.9255 3.83594 16.5042 3.93392 17.0146 4.12988V5.51758C16.5225 5.18034 15.9574 5.01172 15.3193 5.01172C15.1188 5.01172 14.9365 5.03223 14.7725 5.07324C14.613 5.11426 14.4762 5.17122 14.3623 5.24414C14.2484 5.31706 14.1595 5.40592 14.0957 5.51074C14.0319 5.611 14 5.72266 14 5.8457C14 5.99609 14.0319 6.1237 14.0957 6.22852C14.1595 6.33333 14.2529 6.42676 14.376 6.50879C14.5036 6.58626 14.654 6.65918 14.8271 6.72754C15.0049 6.79134 15.2077 6.86198 15.4355 6.93945C15.7363 7.0625 16.0052 7.18783 16.2422 7.31543C16.4837 7.44303 16.6888 7.58887 16.8574 7.75293C17.026 7.91243 17.1559 8.09928 17.2471 8.31348C17.3382 8.52311 17.3838 8.77376 17.3838 9.06543C17.3838 9.4209 17.3018 9.73079 17.1377 9.99512C16.9736 10.2594 16.7549 10.4782 16.4814 10.6514C16.208 10.8245 15.8913 10.9521 15.5312 11.0342C15.1758 11.1208 14.7998 11.1641 14.4033 11.1641C13.6377 11.1641 12.9746 11.0365 12.4141 10.7812ZM22.5859 10.9248C22.276 11.0798 21.8682 11.1572 21.3623 11.1572C20.0042 11.1572 19.3252 10.5055 19.3252 9.20215V5.24414H18.1562V4H19.3252V2.37988L20.9111 1.92871V4H22.5859V5.24414H20.9111V8.74414C20.9111 9.15885 20.9863 9.45508 21.1367 9.63281C21.2871 9.81055 21.5378 9.89941 21.8887 9.89941C22.1576 9.89941 22.39 9.82194 22.5859 9.66699V10.9248ZM29.3262 11H27.7881V9.90625H27.7607C27.2777 10.7448 26.569 11.1641 25.6348 11.1641C24.9466 11.1641 24.4066 10.9772 24.0146 10.6035C23.6273 10.2298 23.4336 9.73535 23.4336 9.12012C23.4336 7.7985 24.1947 7.02832 25.7168 6.80957L27.7949 6.51562C27.7949 5.51758 27.321 5.01855 26.373 5.01855C25.5391 5.01855 24.7871 5.30566 24.1172 5.87988V4.49219C24.8555 4.05469 25.7077 3.83594 26.6738 3.83594C28.4421 3.83594 29.3262 4.70638 29.3262 6.44727V11ZM27.7949 7.56152L26.3252 7.7666C25.8695 7.82585 25.5254 7.9375 25.293 8.10156C25.0651 8.26107 24.9512 8.54362 24.9512 8.94922C24.9512 9.24544 25.056 9.48926 25.2656 9.68066C25.4798 9.86751 25.7646 9.96094 26.1201 9.96094C26.6032 9.96094 27.002 9.79232 27.3164 9.45508C27.6354 9.11328 27.7949 8.6849 27.7949 8.16992V7.56152ZM37.502 11H35.916V7.05566C35.916 5.74772 35.4535 5.09375 34.5283 5.09375C34.0452 5.09375 33.6465 5.27604 33.332 5.64062C33.0176 6.00065 32.8604 6.45638 32.8604 7.00781V11H31.2676V4H32.8604V5.16211H32.8877C33.4118 4.27799 34.1683 3.83594 35.1572 3.83594C35.9183 3.83594 36.4993 4.08431 36.9004 4.58105C37.3014 5.07324 37.502 5.78646 37.502 6.7207V11ZM43.1348 10.9248C42.8249 11.0798 42.417 11.1572 41.9111 11.1572C40.5531 11.1572 39.874 10.5055 39.874 9.20215V5.24414H38.7051V4H39.874V2.37988L41.46 1.92871V4H43.1348V5.24414H41.46V8.74414C41.46 9.15885 41.5352 9.45508 41.6855 9.63281C41.8359 9.81055 42.0866 9.89941 42.4375 9.89941C42.7064 9.89941 42.9388 9.82194 43.1348 9.66699V10.9248ZM50.1553 7.44531V11H48.5352V1.19727H51.5088C52.6344 1.19727 53.5072 1.45931 54.127 1.9834C54.7467 2.50749 55.0566 3.24577 55.0566 4.19824C55.0566 5.15072 54.7331 5.93001 54.0859 6.53613C53.4388 7.14225 52.5638 7.44531 51.4609 7.44531H50.1553ZM50.1553 2.53711V6.11914H51.208C51.9053 6.11914 52.4362 5.95736 52.8008 5.63379C53.1654 5.31022 53.3477 4.85449 53.3477 4.2666C53.3477 3.11361 52.6777 2.53711 51.3379 2.53711H50.1553ZM59.1719 11.1641C58.0918 11.1641 57.2282 10.8382 56.5811 10.1865C55.9385 9.53027 55.6172 8.66211 55.6172 7.58203C55.6172 6.40625 55.9521 5.48796 56.6221 4.82715C57.2965 4.16634 58.2035 3.83594 59.3428 3.83594C60.4365 3.83594 61.2887 4.15723 61.8994 4.7998C62.5101 5.44238 62.8154 6.33333 62.8154 7.47266C62.8154 8.58919 62.485 9.4847 61.8242 10.1592C61.168 10.8291 60.2839 11.1641 59.1719 11.1641ZM59.2471 5.10059C58.6273 5.10059 58.1374 5.31706 57.7773 5.75C57.4173 6.18294 57.2373 6.77995 57.2373 7.54102C57.2373 8.27474 57.4196 8.85352 57.7842 9.27734C58.1488 9.69661 58.6364 9.90625 59.2471 9.90625C59.8714 9.90625 60.3499 9.69889 60.6826 9.28418C61.0199 8.86947 61.1885 8.2793 61.1885 7.51367C61.1885 6.74349 61.0199 6.14876 60.6826 5.72949C60.3499 5.31022 59.8714 5.10059 59.2471 5.10059ZM66.0283 11H64.4355V0.636719H66.0283V11ZM68.8994 2.53027C68.6396 2.53027 68.4163 2.44596 68.2295 2.27734C68.0472 2.10872 67.9561 1.89453 67.9561 1.63477C67.9561 1.375 68.0472 1.15853 68.2295 0.985352C68.4163 0.812174 68.6396 0.725586 68.8994 0.725586C69.1683 0.725586 69.3962 0.812174 69.583 0.985352C69.7699 1.15853 69.8633 1.375 69.8633 1.63477C69.8633 1.88086 69.7699 2.09277 69.583 2.27051C69.3962 2.44368 69.1683 2.53027 68.8994 2.53027ZM69.6855 11H68.0996V4H69.6855V11ZM76.7744 10.6787C76.2139 11.0023 75.5508 11.1641 74.7852 11.1641C73.7461 11.1641 72.9076 10.8405 72.2695 10.1934C71.6315 9.54167 71.3125 8.69857 71.3125 7.66406C71.3125 6.51107 71.6543 5.58594 72.3379 4.88867C73.026 4.18685 73.9443 3.83594 75.0928 3.83594C75.7308 3.83594 76.2936 3.94759 76.7812 4.1709V5.64746C76.2936 5.28288 75.7741 5.10059 75.2227 5.10059C74.5527 5.10059 74.0036 5.32845 73.5752 5.78418C73.1468 6.23535 72.9326 6.8278 72.9326 7.56152C72.9326 8.28613 73.1331 8.85807 73.5342 9.27734C73.9398 9.69661 74.4821 9.90625 75.1611 9.90625C75.7308 9.90625 76.2686 9.70345 76.7744 9.29785V10.6787ZM84.417 4L81.2588 12.1211C80.6025 13.5703 79.682 14.2949 78.4971 14.2949C78.1644 14.2949 77.8864 14.2653 77.6631 14.2061V12.8867C77.9137 12.9688 78.1416 13.0098 78.3467 13.0098C78.9391 13.0098 79.3812 12.7181 79.6729 12.1348L80.1445 10.9863L77.3623 4H79.1191L80.7871 9.08594C80.8053 9.14974 80.8464 9.31836 80.9102 9.5918H80.9443C80.9671 9.48698 81.0081 9.32292 81.0674 9.09961L82.8174 4H84.417Z" fill="#4ECB71"/>
</svg>
