<svg width="36" height="36" viewBox="0 0 36 36" fill="none" xmlns="http://www.w3.org/2000/svg">
<rect width="36" height="36" rx="4" fill="#EDFAF4"/>
<path d="M19.812 12.702H22.4955C22.8676 12.7023 23.2338 12.7948 23.5613 12.9713C23.8889 13.1479 24.1675 13.4028 24.3723 13.7135C24.5771 14.0241 24.7017 14.3807 24.7349 14.7513C24.7681 15.1219 24.7088 15.4949 24.5625 15.837L18.6225 29.7015C18.4791 30.0335 18.2257 30.3059 17.905 30.473C17.5843 30.6401 17.2158 30.6916 16.8616 30.6189C16.5074 30.5462 16.189 30.3537 15.96 30.0738C15.7311 29.7939 15.6055 29.4436 15.6045 29.082V18.702L13.425 18.6345C12.8414 18.615 12.2881 18.3694 11.8823 17.9496C11.4764 17.5297 11.2497 16.9685 11.25 16.3845V7.5C11.25 6.90326 11.4871 6.33097 11.909 5.90901C12.331 5.48705 12.9033 5.25 13.5 5.25H17.562C18.1587 5.25 18.731 5.48705 19.153 5.90901C19.5749 6.33097 19.812 6.90326 19.812 7.5V12.702Z" fill="#4ECB71"/>
</svg>
