<svg width="91" height="15" viewBox="0 0 91 15" fill="none" xmlns="http://www.w3.org/2000/svg">
<path d="M8.97461 11H7.19727L2.51465 3.79492C2.39616 3.61263 2.29818 3.4235 2.2207 3.22754H2.17969C2.21615 3.43717 2.23438 3.88607 2.23438 4.57422V11H0.662109V1.19727H2.55566L7.08105 8.23145C7.27246 8.52311 7.39551 8.72363 7.4502 8.83301H7.47754C7.43197 8.57324 7.40918 8.13346 7.40918 7.51367V1.19727H8.97461V11ZM14.334 11.1641C13.2539 11.1641 12.3903 10.8382 11.7432 10.1865C11.1006 9.53027 10.7793 8.66211 10.7793 7.58203C10.7793 6.40625 11.1143 5.48796 11.7842 4.82715C12.4587 4.16634 13.3656 3.83594 14.5049 3.83594C15.5986 3.83594 16.4508 4.15723 17.0615 4.7998C17.6722 5.44238 17.9775 6.33333 17.9775 7.47266C17.9775 8.58919 17.6471 9.4847 16.9863 10.1592C16.3301 10.8291 15.446 11.1641 14.334 11.1641ZM14.4092 5.10059C13.7894 5.10059 13.2995 5.31706 12.9395 5.75C12.5794 6.18294 12.3994 6.77995 12.3994 7.54102C12.3994 8.27474 12.5817 8.85352 12.9463 9.27734C13.3109 9.69661 13.7985 9.90625 14.4092 9.90625C15.0335 9.90625 15.512 9.69889 15.8447 9.28418C16.182 8.86947 16.3506 8.2793 16.3506 7.51367C16.3506 6.74349 16.182 6.14876 15.8447 5.72949C15.512 5.31022 15.0335 5.10059 14.4092 5.10059ZM25.251 7.44531V11H23.6309V1.19727H26.6045C27.7301 1.19727 28.6029 1.45931 29.2227 1.9834C29.8424 2.50749 30.1523 3.24577 30.1523 4.19824C30.1523 5.15072 29.8288 5.93001 29.1816 6.53613C28.5345 7.14225 27.6595 7.44531 26.5566 7.44531H25.251ZM25.251 2.53711V6.11914H26.3037C27.001 6.11914 27.5319 5.95736 27.8965 5.63379C28.2611 5.31022 28.4434 4.85449 28.4434 4.2666C28.4434 3.11361 27.7734 2.53711 26.4336 2.53711H25.251ZM36.6055 11H35.0674V9.90625H35.04C34.557 10.7448 33.8483 11.1641 32.9141 11.1641C32.2259 11.1641 31.6859 10.9772 31.2939 10.6035C30.9066 10.2298 30.7129 9.73535 30.7129 9.12012C30.7129 7.7985 31.474 7.02832 32.9961 6.80957L35.0742 6.51562C35.0742 5.51758 34.6003 5.01855 33.6523 5.01855C32.8184 5.01855 32.0664 5.30566 31.3965 5.87988V4.49219C32.1348 4.05469 32.987 3.83594 33.9531 3.83594C35.7214 3.83594 36.6055 4.70638 36.6055 6.44727V11ZM35.0742 7.56152L33.6045 7.7666C33.1488 7.82585 32.8047 7.9375 32.5723 8.10156C32.3444 8.26107 32.2305 8.54362 32.2305 8.94922C32.2305 9.24544 32.3353 9.48926 32.5449 9.68066C32.7591 9.86751 33.0439 9.96094 33.3994 9.96094C33.8825 9.96094 34.2812 9.79232 34.5957 9.45508C34.9147 9.11328 35.0742 8.6849 35.0742 8.16992V7.56152ZM40.1602 9.96777H40.1328V14.2197H38.5469V4H40.1328V5.23047H40.1602C40.7025 4.30078 41.4954 3.83594 42.5391 3.83594C43.4277 3.83594 44.1204 4.14811 44.6172 4.77246C45.1139 5.39681 45.3623 6.23535 45.3623 7.28809C45.3623 8.45475 45.082 9.389 44.5215 10.0908C43.9609 10.7926 43.1953 11.1436 42.2246 11.1436C41.3314 11.1436 40.6432 10.7516 40.1602 9.96777ZM40.1191 7.20605V8.07422C40.1191 8.58464 40.2809 9.01758 40.6045 9.37305C40.9326 9.72852 41.3473 9.90625 41.8486 9.90625C42.4365 9.90625 42.8968 9.67839 43.2295 9.22266C43.5667 8.76237 43.7354 8.12207 43.7354 7.30176C43.7354 6.61361 43.5781 6.07585 43.2637 5.68848C42.9538 5.29655 42.5322 5.10059 41.999 5.10059C41.4339 5.10059 40.9782 5.30111 40.6318 5.70215C40.29 6.10319 40.1191 6.60449 40.1191 7.20605ZM52.9092 7.93066H48.1377C48.1559 8.5778 48.3542 9.07682 48.7324 9.42773C49.1152 9.77865 49.6393 9.9541 50.3047 9.9541C51.0521 9.9541 51.738 9.73079 52.3623 9.28418V10.5625C51.7243 10.9635 50.8812 11.1641 49.833 11.1641C48.8031 11.1641 47.9941 10.8473 47.4062 10.2139C46.8229 9.57585 46.5312 8.68034 46.5312 7.52734C46.5312 6.43815 46.8525 5.55176 47.4951 4.86816C48.1423 4.18001 48.9443 3.83594 49.9014 3.83594C50.8584 3.83594 51.599 4.14355 52.123 4.75879C52.6471 5.37402 52.9092 6.22852 52.9092 7.32227V7.93066ZM51.3779 6.80957C51.3734 6.23991 51.2389 5.79785 50.9746 5.4834C50.7103 5.16439 50.3457 5.00488 49.8809 5.00488C49.4251 5.00488 49.0378 5.17122 48.7188 5.50391C48.4043 5.83659 48.2106 6.27181 48.1377 6.80957H51.3779ZM58.4805 5.51074C58.2891 5.36035 58.0133 5.28516 57.6533 5.28516C57.1839 5.28516 56.792 5.49707 56.4775 5.9209C56.1631 6.34473 56.0059 6.92122 56.0059 7.65039V11H54.4199V4H56.0059V5.44238H56.0332C56.1882 4.9502 56.4251 4.56738 56.7441 4.29395C57.0677 4.01595 57.4277 3.87695 57.8242 3.87695C58.1113 3.87695 58.3301 3.92025 58.4805 4.00684V5.51074ZM69.5479 4L67.4834 11H65.8223L64.5508 6.25586C64.5007 6.07357 64.4688 5.86849 64.4551 5.64062H64.4277C64.4186 5.79557 64.3776 5.99609 64.3047 6.24219L62.9238 11H61.2969L59.2393 4H60.8799L62.1514 9.04492C62.1924 9.19531 62.2197 9.39583 62.2334 9.64648H62.2812C62.2949 9.45508 62.3314 9.25 62.3906 9.03125L63.8057 4H65.2959L66.5537 9.06543C66.5947 9.22493 66.6243 9.42546 66.6426 9.66699H66.6904C66.6995 9.49837 66.7337 9.29785 66.793 9.06543L68.0371 4H69.5479ZM73.7793 11.1641C72.6992 11.1641 71.8356 10.8382 71.1885 10.1865C70.5459 9.53027 70.2246 8.66211 70.2246 7.58203C70.2246 6.40625 70.5596 5.48796 71.2295 4.82715C71.904 4.16634 72.8109 3.83594 73.9502 3.83594C75.0439 3.83594 75.8962 4.15723 76.5068 4.7998C77.1175 5.44238 77.4229 6.33333 77.4229 7.47266C77.4229 8.58919 77.0924 9.4847 76.4316 10.1592C75.7754 10.8291 74.8913 11.1641 73.7793 11.1641ZM73.8545 5.10059C73.2347 5.10059 72.7448 5.31706 72.3848 5.75C72.0247 6.18294 71.8447 6.77995 71.8447 7.54102C71.8447 8.27474 72.027 8.85352 72.3916 9.27734C72.7562 9.69661 73.2438 9.90625 73.8545 9.90625C74.4788 9.90625 74.9574 9.69889 75.29 9.28418C75.6273 8.86947 75.7959 8.2793 75.7959 7.51367C75.7959 6.74349 75.6273 6.14876 75.29 5.72949C74.9574 5.31022 74.4788 5.10059 73.8545 5.10059ZM83.1035 5.51074C82.9121 5.36035 82.6364 5.28516 82.2764 5.28516C81.807 5.28516 81.415 5.49707 81.1006 5.9209C80.7861 6.34473 80.6289 6.92122 80.6289 7.65039V11H79.043V4H80.6289V5.44238H80.6562C80.8112 4.9502 81.0482 4.56738 81.3672 4.29395C81.6908 4.01595 82.0508 3.87695 82.4473 3.87695C82.7344 3.87695 82.9531 3.92025 83.1035 4.00684V5.51074ZM90.5752 11H88.5654L85.8447 7.63672H85.8174V11H84.2246V0.636719H85.8174V7.20605H85.8447L88.415 4H90.3223L87.4307 7.37695L90.5752 11Z" fill="#57DAF5"/>
</svg>
