<svg width="100" height="100" viewBox="0 0 100 100" fill="none" xmlns="http://www.w3.org/2000/svg">
<path d="M9.61659 84.2412L8.73588 80.7782C7.17433 80.1183 5.57671 79.5468 3.95061 79.0664L3.83944 80.6759L3.38861 78.9027C1.37196 78.3279 0 78.0751 0 78.0751C0 78.0751 1.85272 85.101 5.73996 90.4723L10.2689 91.2656L6.7505 91.7714C7.23948 92.358 7.76496 92.9133 8.32384 93.4341C13.978 98.6668 20.2758 101.068 22.3902 98.7964C24.5046 96.5251 21.635 90.4422 15.9808 85.2101C14.228 83.5879 12.0261 82.2862 9.82187 81.2614L9.61659 84.2412Z" fill="#F2F2F2"/>
<path d="M17.9922 80.4797L19.0337 77.0613C18.0391 75.6917 16.9679 74.3791 15.825 73.1298L14.8954 74.4503L15.4287 72.7C14.0001 71.1692 12.9568 70.2458 12.9568 70.2458C12.9568 70.2458 10.9007 77.2152 11.4431 83.8165L14.9089 86.8296L11.6341 85.4493C11.7487 86.2036 11.9107 86.9499 12.1193 87.6839C14.2467 95.0772 18.3932 100.378 21.3806 99.5235C24.3681 98.6689 25.0654 91.9828 22.938 84.5894C22.2786 82.2974 21.0684 80.0482 19.7128 78.0352L17.9922 80.4797Z" fill="#F2F2F2"/>
<path d="M69.7787 23.6901H69.2294V8.68493C69.2294 7.54441 69.0041 6.41506 68.5663 5.36136C68.1285 4.30765 67.4869 3.35024 66.678 2.54377C65.8691 1.7373 64.9088 1.09757 63.852 0.661114C62.7951 0.224657 61.6624 1.52588e-05 60.5185 1.52588e-05H28.6318C26.3216 1.52588e-05 24.1059 0.915031 22.4723 2.54377C20.8387 4.17251 19.9209 6.38155 19.9209 8.68493V91.0058C19.9209 92.1463 20.1463 93.2756 20.584 94.3293C21.0218 95.383 21.6634 96.3405 22.4723 97.1469C23.2812 97.9534 24.2415 98.5931 25.2983 99.0296C26.3552 99.466 27.4879 99.6907 28.6318 99.6907H60.5185C62.8287 99.6906 65.0443 98.7756 66.6779 97.1469C68.3115 95.5181 69.2292 93.3091 69.2292 91.0058V34.371H69.7786L69.7787 23.6901Z" fill="#E6E6E6"/>
<path d="M60.8703 2.25867H56.7084C56.8998 2.72657 56.9729 3.23423 56.9212 3.73692C56.8694 4.2396 56.6945 4.72189 56.4118 5.14129C56.129 5.56068 55.7472 5.90432 55.2999 6.14191C54.8525 6.3795 54.3535 6.50376 53.8466 6.50374H35.5791C35.0723 6.50372 34.5733 6.37943 34.126 6.14182C33.6787 5.9042 33.2969 5.56057 33.0142 5.14118C32.7315 4.72179 32.5566 4.23952 32.5049 3.73685C32.4531 3.23418 32.5262 2.72655 32.7176 2.25867H28.8301C27.1048 2.25867 25.4502 2.94199 24.2302 4.15832C23.0103 5.37464 22.3249 7.02433 22.3249 8.74448V90.9458C22.3249 92.6659 23.0103 94.3156 24.2302 95.5319C25.4502 96.7483 27.1048 97.4316 28.8301 97.4316H60.8703C62.5956 97.4316 64.2503 96.7483 65.4702 95.5319C66.6902 94.3156 67.3756 92.6659 67.3756 90.9458V8.74434C67.3755 7.02422 66.6901 5.37457 65.4702 4.15827C64.2502 2.94197 62.5956 2.25867 60.8703 2.25867Z" fill="white"/>
<path d="M40.7682 35.0035C40.7681 34.4289 40.9198 33.8644 41.2081 33.3669C41.4963 32.8693 41.9109 32.4563 42.4102 32.1692C41.9112 31.8819 41.3451 31.7306 40.7688 31.7305C40.1926 31.7305 39.6265 31.8817 39.1274 32.1689C38.6283 32.4561 38.2139 32.8693 37.9258 33.3668C37.6376 33.8644 37.4859 34.4288 37.4859 35.0033C37.4859 35.5778 37.6376 36.1422 37.9258 36.6398C38.2139 37.1373 38.6283 37.5505 39.1274 37.8377C39.6265 38.1249 40.1926 38.2761 40.7688 38.276C41.3451 38.276 41.9112 38.1247 42.4102 37.8373C41.9109 37.5504 41.4963 37.1374 41.2081 36.6399C40.9199 36.1424 40.7681 35.578 40.7682 35.0035Z" fill="#CCCCCC"/>
<path d="M44.894 35.0035C44.8939 34.4289 45.0456 33.8644 45.3339 33.3669C45.6221 32.8693 46.0367 32.4563 46.536 32.1692C46.037 31.8819 45.4709 31.7306 44.8946 31.7305C44.3184 31.7305 43.7523 31.8817 43.2532 32.1689C42.7541 32.4561 42.3397 32.8693 42.0516 33.3668C41.7634 33.8644 41.6117 34.4288 41.6117 35.0033C41.6117 35.5778 41.7634 36.1422 42.0516 36.6398C42.3397 37.1373 42.7541 37.5505 43.2532 37.8377C43.7523 38.1249 44.3184 38.2761 44.8946 38.276C45.4709 38.276 46.037 38.1247 46.536 37.8373C46.0368 37.5504 45.6222 37.1374 45.3339 36.6399C45.0457 36.1424 44.894 35.578 44.894 35.0035Z" fill="#CCCCCC"/>
<path d="M48.9273 38.2761C50.7402 38.2761 52.2099 36.8108 52.2099 35.0034C52.2099 33.1959 50.7402 31.7306 48.9273 31.7306C47.1144 31.7306 45.6448 33.1959 45.6448 35.0034C45.6448 36.8108 47.1144 38.2761 48.9273 38.2761Z" fill="#0663F6"/>
<path d="M54.4126 45.2255H35.2812C35.0991 45.2253 34.9244 45.153 34.7957 45.0246C34.6669 44.8962 34.5944 44.7221 34.5942 44.5405V25.4662C34.5944 25.2846 34.6669 25.1105 34.7957 24.9821C34.9244 24.8537 35.0991 24.7815 35.2812 24.7812H54.4126C54.5947 24.7815 54.7693 24.8537 54.8981 24.9821C55.0269 25.1105 55.0994 25.2846 55.0996 25.4662V44.5405C55.0994 44.7221 55.0269 44.8962 54.8981 45.0246C54.7693 45.153 54.5947 45.2253 54.4126 45.2255ZM35.2812 25.0554C35.1719 25.0555 35.0671 25.0988 34.9899 25.1759C34.9126 25.2529 34.8691 25.3574 34.869 25.4663V44.5407C34.8691 44.6496 34.9126 44.7541 34.9899 44.8311C35.0671 44.9082 35.1719 44.9515 35.2812 44.9516H54.4126C54.5219 44.9515 54.6267 44.9082 54.7039 44.8311C54.7812 44.7541 54.8247 44.6496 54.8248 44.5407V25.4663C54.8247 25.3574 54.7812 25.2529 54.7039 25.1759C54.6267 25.0988 54.5219 25.0555 54.4126 25.0554H35.2812Z" fill="#CCCCCC"/>
<path d="M58.6849 59.8468H29.3431V60.1208H58.6849V59.8468Z" fill="#CCCCCC"/>
<path d="M30.2697 58.1362C30.7815 58.1362 31.1963 57.7225 31.1963 57.2123C31.1963 56.7021 30.7815 56.2884 30.2697 56.2884C29.7579 56.2884 29.3431 56.7021 29.3431 57.2123C29.3431 57.7225 29.7579 58.1362 30.2697 58.1362Z" fill="#0663F6"/>
<path d="M58.6849 69.085H29.3431V69.359H58.6849V69.085Z" fill="#CCCCCC"/>
<path d="M30.2697 67.3744C30.7815 67.3744 31.1963 66.9608 31.1963 66.4506C31.1963 65.9403 30.7815 65.5267 30.2697 65.5267C29.7579 65.5267 29.3431 65.9403 29.3431 66.4506C29.3431 66.9608 29.7579 67.3744 30.2697 67.3744Z" fill="#0663F6"/>
<path d="M58.1478 79.605H48.875C48.7148 79.6048 48.5613 79.5413 48.448 79.4284C48.3348 79.3154 48.271 79.1623 48.2709 79.0026V75.7623C48.271 75.6026 48.3348 75.4494 48.448 75.3365C48.5613 75.2236 48.7148 75.1601 48.875 75.1599H58.1478C58.308 75.1601 58.4616 75.2236 58.5748 75.3365C58.6881 75.4494 58.7518 75.6026 58.752 75.7623V79.0026C58.7518 79.1623 58.6881 79.3154 58.5748 79.4284C58.4616 79.5413 58.308 79.6048 58.1478 79.605Z" fill="#0663F6"/>
<path d="M33.2926 58.1362C33.8043 58.1362 34.2192 57.7225 34.2192 57.2123C34.2192 56.7021 33.8043 56.2884 33.2926 56.2884C32.7808 56.2884 32.3659 56.7021 32.3659 57.2123C32.3659 57.7225 32.7808 58.1362 33.2926 58.1362Z" fill="#0663F6"/>
<path d="M36.3154 58.1362C36.8272 58.1362 37.2421 57.7225 37.2421 57.2123C37.2421 56.7021 36.8272 56.2884 36.3154 56.2884C35.8037 56.2884 35.3888 56.7021 35.3888 57.2123C35.3888 57.7225 35.8037 58.1362 36.3154 58.1362Z" fill="#0663F6"/>
<path d="M33.2926 67.3744C33.8043 67.3744 34.2192 66.9608 34.2192 66.4506C34.2192 65.9403 33.8043 65.5267 33.2926 65.5267C32.7808 65.5267 32.3659 65.9403 32.3659 66.4506C32.3659 66.9608 32.7808 67.3744 33.2926 67.3744Z" fill="#0663F6"/>
<path d="M36.3154 67.3744C36.8272 67.3744 37.2421 66.9608 37.2421 66.4506C37.2421 65.9403 36.8272 65.5267 36.3154 65.5267C35.8037 65.5267 35.3888 65.9403 35.3888 66.4506C35.3888 66.9608 35.8037 67.3744 36.3154 67.3744Z" fill="#0663F6"/>
<path d="M99.6261 100H3.23242C3.02607 100 2.85892 99.9269 2.85892 99.837C2.85892 99.747 3.02607 99.6738 3.23242 99.6738H99.6261C99.8323 99.6738 99.9996 99.7469 99.9996 99.837C99.9996 99.927 99.8323 100 99.6261 100Z" fill="#3F3D56"/>
<path d="M75.8108 65.5169C75.8767 65.5469 75.94 65.5821 76.0002 65.6222L82.0219 63.0598L82.2368 61.4783L84.6429 61.4637L84.5007 65.0909L76.5528 67.1865C76.5361 67.2416 76.516 67.2956 76.4927 67.3482C76.3778 67.5927 76.193 67.7978 75.9616 67.9379C75.7301 68.078 75.4623 68.1468 75.1917 68.1356C74.9211 68.1245 74.6599 68.0339 74.4409 67.8752C74.2218 67.7165 74.0547 67.4968 73.9604 67.2437C73.8662 66.9906 73.849 66.7154 73.9111 66.4526C73.9733 66.1898 74.1119 65.9512 74.3096 65.7667C74.5073 65.5822 74.7552 65.4601 75.0223 65.4156C75.2894 65.3712 75.5637 65.4064 75.8108 65.5169Z" fill="#FFB8B8"/>
<path d="M85.5177 98.3862H83.8717L83.0888 92.0565L85.518 92.0566L85.5177 98.3862Z" fill="#FFB8B8"/>
<path d="M82.6961 97.9173H85.8704V99.91H80.6974C80.6974 99.3815 80.908 98.8747 81.2828 98.501C81.6576 98.1273 82.166 97.9173 82.6961 97.9173Z" fill="#2F2E41"/>
<path d="M91.9194 97.9226L90.2814 98.0834L88.8796 91.8608L91.2972 91.6234L91.9194 97.9226Z" fill="#FFB8B8"/>
<path d="M89.0653 97.7317L92.2244 97.4215L92.4203 99.4046L87.2722 99.9101C87.2465 99.6497 87.2725 99.3868 87.3487 99.1364C87.4249 98.886 87.5498 98.653 87.7163 98.4507C87.8828 98.2484 88.0876 98.0808 88.3191 97.9574C88.5506 97.8341 88.8041 97.7574 89.0653 97.7317Z" fill="#2F2E41"/>
<path d="M85.9761 54.7647C87.7973 54.7647 89.2736 53.2928 89.2736 51.4771C89.2736 49.6614 87.7973 48.1895 85.9761 48.1895C84.155 48.1895 82.6787 49.6614 82.6787 51.4771C82.6787 53.2928 84.155 54.7647 85.9761 54.7647Z" fill="#FFB8B8"/>
<path d="M83.5049 97.1062C83.3635 97.1065 83.2265 97.0571 83.118 96.9665C83.0096 96.876 82.9367 96.7502 82.9122 96.6113C82.0603 91.8962 79.2755 76.4788 79.2089 76.0517C79.2074 76.0419 79.2067 76.032 79.2068 76.0221V74.8725C79.2067 74.8307 79.2198 74.7898 79.2443 74.7558L79.6122 74.2421C79.6297 74.2174 79.6526 74.197 79.6792 74.1825C79.7058 74.168 79.7354 74.1597 79.7657 74.1584C81.8631 74.0604 88.7319 73.7731 89.0637 74.1864C89.397 74.6018 89.2792 75.8605 89.2522 76.1086L89.2536 76.1345L92.3395 95.8105C92.3636 95.9674 92.3248 96.1275 92.2315 96.2562C92.1382 96.3848 91.9978 96.4716 91.8407 96.4978L89.9133 96.8144C89.7697 96.8374 89.6227 96.8083 89.4989 96.7323C89.3751 96.6563 89.2827 96.5386 89.2386 96.4004C88.6425 94.5012 86.6436 88.1124 85.9508 85.6403C85.9465 85.6246 85.9366 85.6111 85.9229 85.6022C85.9093 85.5933 85.8929 85.5896 85.8768 85.5919C85.8607 85.5941 85.8459 85.6022 85.8353 85.6145C85.8247 85.6268 85.819 85.6426 85.8192 85.6588C85.8538 88.0154 85.9374 94.0279 85.9663 96.1045L85.9694 96.3281C85.9707 96.4796 85.9149 96.626 85.8132 96.7384C85.7115 96.8508 85.5711 96.9211 85.4199 96.9353L83.5613 97.1037C83.5424 97.1054 83.5236 97.1062 83.5049 97.1062Z" fill="#2F2E41"/>
<path d="M83.8833 56.0574C83.3078 56.3985 82.9635 57.0253 82.7659 57.6631C82.4 58.8438 82.1798 60.0646 82.1101 61.2985L81.9013 64.9929L79.3162 74.7871C81.5567 76.6772 82.8492 76.2476 85.8652 74.7016C88.8813 73.1555 89.226 75.2171 89.226 75.2171L89.8291 66.8835L90.6908 57.777C90.4974 57.5448 90.2784 57.3349 90.0381 57.1513C89.2416 56.5338 88.3149 56.1046 87.3279 55.8961C86.3409 55.6875 85.3192 55.705 84.34 55.9473L83.8833 56.0574Z" fill="#0663F6"/>
<path d="M83.0444 67.4949C83.1139 67.521 83.1813 67.5525 83.2459 67.5891L89.1999 64.6179L89.2987 63.0083L91.7547 62.8394L91.8864 66.5088L83.9296 69.1322C83.8646 69.4101 83.7163 69.6616 83.5045 69.8534C83.2927 70.0451 83.0273 70.1681 82.7437 70.2058C82.46 70.2435 82.1716 70.1943 81.9167 70.0646C81.6619 69.9349 81.4526 69.731 81.3169 69.4798C81.1811 69.2287 81.1252 68.9423 81.1567 68.6588C81.1881 68.3752 81.3054 68.1079 81.493 67.8924C81.6805 67.677 81.9294 67.5235 82.2065 67.4525C82.4836 67.3815 82.7759 67.3963 83.0444 67.4949Z" fill="#FFB8B8"/>
<path d="M90.6485 57.8187C92.1134 58.3342 92.3715 63.919 92.3715 63.919C90.6481 62.9739 88.5799 64.5204 88.5799 64.5204C88.5799 64.5204 88.149 63.0598 87.632 61.1697C87.4759 60.638 87.4572 60.0757 87.5777 59.5349C87.6983 58.9941 87.9541 58.4925 88.3213 58.0768C88.3213 58.0768 89.1836 57.3029 90.6485 57.8187Z" fill="#0663F6"/>
<path d="M88.9327 52.3465C88.5218 52.0188 87.9613 52.6145 87.9613 52.6145L87.6326 49.6652C87.6326 49.6652 85.5784 49.9105 84.2637 49.5833C82.949 49.2561 82.7436 50.7713 82.7436 50.7713C82.6758 50.1593 82.662 49.5425 82.7025 48.928C82.7846 48.1907 83.8528 47.4534 85.7427 46.9618C87.6326 46.4702 88.6186 48.6003 88.6186 48.6003C89.9334 49.2556 89.3435 52.6743 88.9327 52.3465Z" fill="#2F2E41"/>
</svg>
