<svg width="68" height="12" viewBox="0 0 68 12" fill="none" xmlns="http://www.w3.org/2000/svg">
<path d="M0.728516 11V1.19727H3.83887C4.78678 1.19727 5.53646 1.40462 6.08789 1.81934C6.64388 2.23405 6.92188 2.77409 6.92188 3.43945C6.92188 3.99544 6.76465 4.47852 6.4502 4.88867C6.13574 5.29883 5.70052 5.59049 5.14453 5.76367V5.79102C5.81901 5.86849 6.35677 6.11914 6.75781 6.54297C7.16341 6.96224 7.36621 7.50911 7.36621 8.18359C7.36621 9.02214 7.03581 9.70117 6.375 10.2207C5.71419 10.7402 4.88021 11 3.87305 11H0.728516ZM2.34863 2.50293V5.29199H3.40137C3.96647 5.29199 4.40853 5.15983 4.72754 4.89551C5.05111 4.62663 5.21289 4.24837 5.21289 3.76074C5.21289 2.9222 4.65234 2.50293 3.53125 2.50293H2.34863ZM2.34863 6.59766V9.70117H3.73633C4.34245 9.70117 4.80957 9.56217 5.1377 9.28418C5.47038 9.00163 5.63672 8.61426 5.63672 8.12207C5.63672 7.10579 4.93262 6.59766 3.52441 6.59766H2.34863ZM14.9404 7.93066H10.1689C10.1872 8.5778 10.3854 9.07682 10.7637 9.42773C11.1465 9.77865 11.6706 9.9541 12.3359 9.9541C13.0833 9.9541 13.7692 9.73079 14.3936 9.28418V10.5625C13.7555 10.9635 12.9124 11.1641 11.8643 11.1641C10.8343 11.1641 10.0254 10.8473 9.4375 10.2139C8.85417 9.57585 8.5625 8.68034 8.5625 7.52734C8.5625 6.43815 8.88379 5.55176 9.52637 4.86816C10.1735 4.18001 10.9756 3.83594 11.9326 3.83594C12.8896 3.83594 13.6302 4.14355 14.1543 4.75879C14.6784 5.37402 14.9404 6.22852 14.9404 7.32227V7.93066ZM13.4092 6.80957C13.4046 6.23991 13.2702 5.79785 13.0059 5.4834C12.7415 5.16439 12.377 5.00488 11.9121 5.00488C11.4564 5.00488 11.069 5.17122 10.75 5.50391C10.4355 5.83659 10.2419 6.27181 10.1689 6.80957H13.4092ZM16.0137 10.7812V9.31152C16.6061 9.7627 17.2601 9.98828 17.9756 9.98828C18.9326 9.98828 19.4111 9.70573 19.4111 9.14062C19.4111 8.98112 19.3701 8.84668 19.2881 8.7373C19.2061 8.62337 19.0944 8.52311 18.9531 8.43652C18.8164 8.34993 18.6523 8.27246 18.4609 8.2041C18.2741 8.13574 18.0645 8.05827 17.832 7.97168C17.5449 7.85775 17.2852 7.73698 17.0527 7.60938C16.8249 7.48177 16.6335 7.33822 16.4785 7.17871C16.3281 7.01465 16.2142 6.83008 16.1367 6.625C16.0592 6.41992 16.0205 6.18066 16.0205 5.90723C16.0205 5.56999 16.1003 5.27376 16.2598 5.01855C16.4193 4.75879 16.6335 4.54232 16.9023 4.36914C17.1712 4.19141 17.4766 4.05924 17.8184 3.97266C18.1602 3.88151 18.5133 3.83594 18.8779 3.83594C19.5251 3.83594 20.1038 3.93392 20.6143 4.12988V5.51758C20.1221 5.18034 19.557 5.01172 18.9189 5.01172C18.7184 5.01172 18.5361 5.03223 18.3721 5.07324C18.2126 5.11426 18.0758 5.17122 17.9619 5.24414C17.848 5.31706 17.7591 5.40592 17.6953 5.51074C17.6315 5.611 17.5996 5.72266 17.5996 5.8457C17.5996 5.99609 17.6315 6.1237 17.6953 6.22852C17.7591 6.33333 17.8525 6.42676 17.9756 6.50879C18.1032 6.58626 18.2536 6.65918 18.4268 6.72754C18.6045 6.79134 18.8073 6.86198 19.0352 6.93945C19.3359 7.0625 19.6048 7.18783 19.8418 7.31543C20.0833 7.44303 20.2884 7.58887 20.457 7.75293C20.6257 7.91243 20.7555 8.09928 20.8467 8.31348C20.9378 8.52311 20.9834 8.77376 20.9834 9.06543C20.9834 9.4209 20.9014 9.73079 20.7373 9.99512C20.5732 10.2594 20.3545 10.4782 20.0811 10.6514C19.8076 10.8245 19.4909 10.9521 19.1309 11.0342C18.7754 11.1208 18.3994 11.1641 18.0029 11.1641C17.2373 11.1641 16.5742 11.0365 16.0137 10.7812ZM26.1855 10.9248C25.8757 11.0798 25.4678 11.1572 24.9619 11.1572C23.6038 11.1572 22.9248 10.5055 22.9248 9.20215V5.24414H21.7559V4H22.9248V2.37988L24.5107 1.92871V4H26.1855V5.24414H24.5107V8.74414C24.5107 9.15885 24.5859 9.45508 24.7363 9.63281C24.8867 9.81055 25.1374 9.89941 25.4883 9.89941C25.7572 9.89941 25.9896 9.82194 26.1855 9.66699V10.9248ZM33.2061 7.44531V11H31.5859V1.19727H34.5596C35.6852 1.19727 36.5579 1.45931 37.1777 1.9834C37.7975 2.50749 38.1074 3.24577 38.1074 4.19824C38.1074 5.15072 37.7839 5.93001 37.1367 6.53613C36.4896 7.14225 35.6146 7.44531 34.5117 7.44531H33.2061ZM33.2061 2.53711V6.11914H34.2588C34.9561 6.11914 35.487 5.95736 35.8516 5.63379C36.2161 5.31022 36.3984 4.85449 36.3984 4.2666C36.3984 3.11361 35.7285 2.53711 34.3887 2.53711H33.2061ZM43.6582 5.51074C43.4668 5.36035 43.1911 5.28516 42.8311 5.28516C42.3617 5.28516 41.9697 5.49707 41.6553 5.9209C41.3408 6.34473 41.1836 6.92122 41.1836 7.65039V11H39.5977V4H41.1836V5.44238H41.2109C41.3659 4.9502 41.6029 4.56738 41.9219 4.29395C42.2454 4.01595 42.6055 3.87695 43.002 3.87695C43.2891 3.87695 43.5078 3.92025 43.6582 4.00684V5.51074ZM45.5791 2.53027C45.3193 2.53027 45.096 2.44596 44.9092 2.27734C44.7269 2.10872 44.6357 1.89453 44.6357 1.63477C44.6357 1.375 44.7269 1.15853 44.9092 0.985352C45.096 0.812174 45.3193 0.725586 45.5791 0.725586C45.848 0.725586 46.0758 0.812174 46.2627 0.985352C46.4495 1.15853 46.543 1.375 46.543 1.63477C46.543 1.88086 46.4495 2.09277 46.2627 2.27051C46.0758 2.44368 45.848 2.53027 45.5791 2.53027ZM46.3652 11H44.7793V4H46.3652V11ZM53.4541 10.6787C52.8936 11.0023 52.2305 11.1641 51.4648 11.1641C50.4258 11.1641 49.5872 10.8405 48.9492 10.1934C48.3112 9.54167 47.9922 8.69857 47.9922 7.66406C47.9922 6.51107 48.334 5.58594 49.0176 4.88867C49.7057 4.18685 50.624 3.83594 51.7725 3.83594C52.4105 3.83594 52.9733 3.94759 53.4609 4.1709V5.64746C52.9733 5.28288 52.4538 5.10059 51.9023 5.10059C51.2324 5.10059 50.6833 5.32845 50.2549 5.78418C49.8265 6.23535 49.6123 6.8278 49.6123 7.56152C49.6123 8.28613 49.8128 8.85807 50.2139 9.27734C50.6195 9.69661 51.1618 9.90625 51.8408 9.90625C52.4105 9.90625 52.9482 9.70345 53.4541 9.29785V10.6787ZM60.96 7.93066H56.1885C56.2067 8.5778 56.4049 9.07682 56.7832 9.42773C57.166 9.77865 57.6901 9.9541 58.3555 9.9541C59.1029 9.9541 59.7887 9.73079 60.4131 9.28418V10.5625C59.7751 10.9635 58.932 11.1641 57.8838 11.1641C56.8538 11.1641 56.0449 10.8473 55.457 10.2139C54.8737 9.57585 54.582 8.68034 54.582 7.52734C54.582 6.43815 54.9033 5.55176 55.5459 4.86816C56.193 4.18001 56.9951 3.83594 57.9521 3.83594C58.9092 3.83594 59.6497 4.14355 60.1738 4.75879C60.6979 5.37402 60.96 6.22852 60.96 7.32227V7.93066ZM59.4287 6.80957C59.4242 6.23991 59.2897 5.79785 59.0254 5.4834C58.7611 5.16439 58.3965 5.00488 57.9316 5.00488C57.4759 5.00488 57.0885 5.17122 56.7695 5.50391C56.4551 5.83659 56.2614 6.27181 56.1885 6.80957H59.4287ZM62.0332 10.7812V9.31152C62.6257 9.7627 63.2796 9.98828 63.9951 9.98828C64.9521 9.98828 65.4307 9.70573 65.4307 9.14062C65.4307 8.98112 65.3896 8.84668 65.3076 8.7373C65.2256 8.62337 65.1139 8.52311 64.9727 8.43652C64.8359 8.34993 64.6719 8.27246 64.4805 8.2041C64.2936 8.13574 64.084 8.05827 63.8516 7.97168C63.5645 7.85775 63.3047 7.73698 63.0723 7.60938C62.8444 7.48177 62.653 7.33822 62.498 7.17871C62.3477 7.01465 62.2337 6.83008 62.1562 6.625C62.0788 6.41992 62.04 6.18066 62.04 5.90723C62.04 5.56999 62.1198 5.27376 62.2793 5.01855C62.4388 4.75879 62.653 4.54232 62.9219 4.36914C63.1908 4.19141 63.4961 4.05924 63.8379 3.97266C64.1797 3.88151 64.5329 3.83594 64.8975 3.83594C65.5446 3.83594 66.1234 3.93392 66.6338 4.12988V5.51758C66.1416 5.18034 65.5765 5.01172 64.9385 5.01172C64.738 5.01172 64.5557 5.03223 64.3916 5.07324C64.2321 5.11426 64.0954 5.17122 63.9814 5.24414C63.8675 5.31706 63.7786 5.40592 63.7148 5.51074C63.651 5.611 63.6191 5.72266 63.6191 5.8457C63.6191 5.99609 63.651 6.1237 63.7148 6.22852C63.7786 6.33333 63.8721 6.42676 63.9951 6.50879C64.1227 6.58626 64.2731 6.65918 64.4463 6.72754C64.624 6.79134 64.8268 6.86198 65.0547 6.93945C65.3555 7.0625 65.6243 7.18783 65.8613 7.31543C66.1029 7.44303 66.3079 7.58887 66.4766 7.75293C66.6452 7.91243 66.7751 8.09928 66.8662 8.31348C66.9574 8.52311 67.0029 8.77376 67.0029 9.06543C67.0029 9.4209 66.9209 9.73079 66.7568 9.99512C66.5928 10.2594 66.374 10.4782 66.1006 10.6514C65.8271 10.8245 65.5104 10.9521 65.1504 11.0342C64.7949 11.1208 64.4189 11.1641 64.0225 11.1641C63.2568 11.1641 62.5938 11.0365 62.0332 10.7812Z" fill="#F8C446"/>
</svg>
