<svg width="35" height="12" viewBox="0 0 35 12" fill="none" xmlns="http://www.w3.org/2000/svg">
<path d="M5.21635 5.46109H1.89829V8.17443H5.7527V9H0.888672V1.34375H5.70012V2.17458H1.89829V4.63552H5.21635V5.46109ZM7.77719 3.3104L7.80874 4.02554C8.24344 3.47867 8.81135 3.20523 9.51247 3.20523C10.7149 3.20523 11.3214 3.88356 11.3319 5.24023V9H10.3591V5.23498C10.3556 4.82482 10.2609 4.52158 10.0751 4.32527C9.89283 4.12896 9.60712 4.0308 9.218 4.0308C8.90249 4.0308 8.62555 4.11493 8.38717 4.2832C8.14879 4.45147 7.96299 4.67233 7.82978 4.94576V9H6.85697V3.3104H7.77719ZM12.5676 6.10787C12.5676 5.22095 12.7727 4.51633 13.1828 3.99399C13.593 3.46815 14.1364 3.20523 14.813 3.20523C15.5071 3.20523 16.0487 3.45062 16.4378 3.94141L16.4851 3.3104H17.3738V8.86328C17.3738 9.59946 17.1547 10.1796 16.7165 10.6038C16.2818 11.028 15.6964 11.2401 14.9602 11.2401C14.55 11.2401 14.1486 11.1524 13.756 10.9772C13.3634 10.8019 13.0637 10.5617 12.8568 10.2568L13.3616 9.67308C13.7788 10.1884 14.2889 10.4461 14.8918 10.4461C15.3651 10.4461 15.7332 10.3129 15.9961 10.0464C16.2625 9.78 16.3957 9.4049 16.3957 8.92112V8.43209C16.0066 8.88081 15.4755 9.10517 14.8024 9.10517C14.1364 9.10517 13.5965 8.83699 13.1828 8.30063C12.7727 7.76427 12.5676 7.03335 12.5676 6.10787ZM13.5457 6.2183C13.5457 6.85983 13.6771 7.36463 13.9401 7.73272C14.203 8.09731 14.5711 8.2796 15.0443 8.2796C15.6578 8.2796 16.1083 8.0009 16.3957 7.44351V4.84585C16.0978 4.30248 15.6508 4.0308 15.0548 4.0308C14.5816 4.0308 14.2117 4.21484 13.9453 4.58293C13.6789 4.95102 13.5457 5.49614 13.5457 6.2183ZM19.9031 9H18.9303V0.923077H19.9031V9ZM22.5218 9H21.549V3.3104H22.5218V9ZM21.4701 1.80123C21.4701 1.64348 21.5174 1.51027 21.6121 1.40159C21.7102 1.29292 21.854 1.23858 22.0433 1.23858C22.2326 1.23858 22.3763 1.29292 22.4745 1.40159C22.5726 1.51027 22.6217 1.64348 22.6217 1.80123C22.6217 1.95898 22.5726 2.09044 22.4745 2.19561C22.3763 2.30078 22.2326 2.35337 22.0433 2.35337C21.854 2.35337 21.7102 2.30078 21.6121 2.19561C21.5174 2.09044 21.4701 1.95898 21.4701 1.80123ZM27.3963 7.49084C27.3963 7.22791 27.2964 7.02459 27.0966 6.88086C26.9003 6.73362 26.555 6.60742 26.0607 6.50225C25.5699 6.39709 25.179 6.27088 24.8881 6.12365C24.6006 5.97641 24.3868 5.80113 24.2465 5.59781C24.1098 5.39448 24.0415 5.15259 24.0415 4.87215C24.0415 4.4059 24.2378 4.01152 24.6304 3.689C25.0265 3.36649 25.5313 3.20523 26.1448 3.20523C26.7899 3.20523 27.3122 3.37174 27.7118 3.70478C28.115 4.03781 28.3166 4.46374 28.3166 4.98257H27.3385C27.3385 4.71615 27.2246 4.48653 26.9967 4.29372C26.7723 4.10091 26.4884 4.00451 26.1448 4.00451C25.7908 4.00451 25.5138 4.08163 25.314 4.23588C25.1142 4.39012 25.0143 4.5917 25.0143 4.84059C25.0143 5.07547 25.1072 5.2525 25.293 5.37169C25.4788 5.49089 25.8136 5.60482 26.2973 5.71349C26.7846 5.82217 27.179 5.95187 27.4805 6.10261C27.782 6.25336 28.0046 6.43565 28.1483 6.64949C28.2955 6.85983 28.3691 7.11749 28.3691 7.42248C28.3691 7.93079 28.1658 8.33919 27.7592 8.64769C27.3525 8.95267 26.8249 9.10517 26.1764 9.10517C25.7207 9.10517 25.3175 9.02454 24.9669 8.86328C24.6164 8.70202 24.3412 8.47766 24.1414 8.1902C23.9451 7.89924 23.8469 7.58549 23.8469 7.24895H24.8197C24.8372 7.57497 24.9669 7.83439 25.2088 8.02719C25.4542 8.2165 25.7767 8.31115 26.1764 8.31115C26.5445 8.31115 26.8389 8.23753 27.0598 8.09029C27.2842 7.93955 27.3963 7.73973 27.3963 7.49084ZM30.6092 3.99925C31.0404 3.4699 31.6013 3.20523 32.2919 3.20523C33.4943 3.20523 34.1008 3.88356 34.1113 5.24023V9H33.1385V5.23498C33.135 4.82482 33.0404 4.52158 32.8546 4.32527C32.6723 4.12896 32.3866 4.0308 31.9974 4.0308C31.6819 4.0308 31.405 4.11493 31.1666 4.2832C30.9282 4.45147 30.7424 4.67233 30.6092 4.94576V9H29.6364V0.923077H30.6092V3.99925Z" fill="#0663F6"/>
</svg>
