<svg width="36" height="36" viewBox="0 0 36 36" fill="none" xmlns="http://www.w3.org/2000/svg">
<path d="M0 4C0 1.79086 1.79086 0 4 0L32 -1.2162e-10C34.2091 -1.30016e-10 36 1.79086 36 4L36 32C36 34.2091 34.2091 36 32 36L4 36C1.79086 36 1.30016e-10 34.2091 1.2162e-10 32L0 4Z" fill="#FEF9E6"/>
<path d="M24.6667 10L11.3333 10C9.49233 10 8 11.1939 8 12.6667L8 23.3333C8 24.8061 9.49233 26 11.3333 26L24.6667 26C26.5077 26 28 24.8061 28 23.3333L28 12.6667C28 11.1939 26.5077 10 24.6667 10ZM14.3333 19.8667L13.4823 19.8667L11.7877 17.4317L11.7877 19.8667L11 19.8667L11 16.1333L11.8257 16.1333L13.5457 18.6261L13.5457 16.1333L14.3333 16.1333L14.3333 19.8667ZM19 19.8667L15.6667 19.8667L15.6667 16.1333L18.9167 16.1333L18.9167 16.7645L16.5513 16.7645L16.5513 17.5923L18.7513 17.5923L18.7513 18.2213L16.5513 18.2213L16.5513 19.2368L19 19.2368L19 19.8667ZM24.556 19.8667L23.5767 19.8667L22.667 17.0755L21.7597 19.8667L20.7583 19.8667L19.6667 16.1333L20.612 16.1333L21.3013 18.6973L22.1367 16.1333L23.2343 16.1333L24.0357 18.7411L24.7377 16.1333L25.6667 16.1333L24.556 19.8667Z" fill="#FFB62C"/>
</svg>
