<svg width="36" height="36" viewBox="0 0 36 36" fill="none" xmlns="http://www.w3.org/2000/svg">
<rect width="36" height="36" rx="4" fill="#D5F6FC"/>
<path d="M12 8V9.18L14.82 12H24V8H12ZM8.28 8L7 9.27L10.75 13C10.0002 13.0673 9.3025 13.4123 8.79378 13.9672C8.28506 14.5222 8.00197 15.2472 8 16V22H12V26H23.73L25.73 28L27 26.72L8.28 8ZM15.82 13L24.82 22H28V16C28 15.2044 27.6839 14.4413 27.1213 13.8787C26.5587 13.3161 25.7956 13 25 13H15.82ZM25 15C25.2652 15 25.5196 15.1054 25.7071 15.2929C25.8946 15.4804 26 15.7348 26 16C26 16.2652 25.8946 16.5196 25.7071 16.7071C25.5196 16.8946 25.2652 17 25 17C24.7348 17 24.4804 16.8946 24.2929 16.7071C24.1054 16.5196 24 16.2652 24 16C24 15.7348 24.1054 15.4804 24.2929 15.2929C24.4804 15.1054 24.7348 15 25 15ZM14 19H16.73L21.73 24H14V19Z" fill="#2FCDEB"/>
</svg>
