<svg width="30" height="26" viewBox="0 0 30 26" fill="none" xmlns="http://www.w3.org/2000/svg">
<path d="M10.1533 9.33333L13.9333 6.66667L21.6667 6.66667L21.6667 9.33333L14.808 9.33333L11 12L1.66667 12L1.66667 9.33333L10.1533 9.33333ZM11.3747 16.08L15.2747 14.66L16.1867 17.1667L12.2867 18.5853C12.4703 20.049 12.1083 21.5289 11.2698 22.7426C10.4313 23.9562 9.17517 24.8184 7.74125 25.1646C6.30733 25.5107 4.79616 25.3165 3.49636 24.619C2.19657 23.9216 1.19926 22.7697 0.694913 21.3835C0.19057 19.9973 0.214547 18.4739 0.762264 17.1043C1.30998 15.7346 2.34305 14.6147 3.66415 13.9585C4.98525 13.3023 6.50179 13.1557 7.9241 13.5468C9.34641 13.9379 10.5748 14.8393 11.3747 16.0787L11.3747 16.08ZM6.33334 22.6667C7.21739 22.6667 8.06524 22.3155 8.69036 21.6904C9.31548 21.0652 9.66667 20.2174 9.66667 19.3333C9.66667 18.4493 9.31548 17.6014 8.69036 16.9763C8.06524 16.3512 7.21739 16 6.33334 16C5.44928 16 4.60144 16.3512 3.97631 16.9763C3.35119 17.6014 3 18.4493 3 19.3333C3 20.2174 3.35119 21.0652 3.97631 21.6904C4.60144 22.3155 5.44928 22.6667 6.33334 22.6667V22.6667ZM23.6667 25.3333C22.8787 25.3333 22.0985 25.1781 21.3706 24.8766C20.6426 24.5751 19.9812 24.1331 19.424 23.576C18.8669 23.0188 18.4249 22.3574 18.1234 21.6294C17.8219 20.9015 17.6667 20.1213 17.6667 19.3333C17.6667 18.5454 17.8219 17.7652 18.1234 17.0372C18.4249 16.3093 18.8669 15.6478 19.424 15.0907C19.9812 14.5335 20.6426 14.0916 21.3706 13.7901C22.0985 13.4885 22.8787 13.3333 23.6667 13.3333C25.258 13.3333 26.7841 13.9655 27.9093 15.0907C29.0345 16.2159 29.6667 17.742 29.6667 19.3333C29.6667 20.9246 29.0345 22.4508 27.9093 23.576C26.7841 24.7012 25.258 25.3333 23.6667 25.3333V25.3333ZM23.6667 22.6667C24.5507 22.6667 25.3986 22.3155 26.0237 21.6904C26.6488 21.0652 27 20.2174 27 19.3333C27 18.4493 26.6488 17.6014 26.0237 16.9763C25.3986 16.3512 24.5507 16 23.6667 16C22.7826 16 21.9348 16.3512 21.3096 16.9763C20.6845 17.6014 20.3333 18.4493 20.3333 19.3333C20.3333 20.2174 20.6845 21.0652 21.3096 21.6904C21.9348 22.3155 22.7826 22.6667 23.6667 22.6667ZM4.33334 10.6667L12.3333 10.6667L15.8 8.356L16.1733 6.96133L18.7493 7.652L16.1867 17.16L13.7573 15.976L13.9147 15.3893L11 17.3333L9.66667 14.6667L4.33334 14.6667L4.33334 10.6667ZM20.456 4L25.6667 4L25.6667 8L21.912 8L24.472 15.0347L21.9653 15.9467L19.0747 8L19 8L19 7.79733L17.1333 2.66667L13.6667 2.66667L13.6667 0L19 0L20.456 4Z" fill="#043C95"/>
</svg>
